<svg id="Layer_1" data-name="Layer 1" xmlns="http://www.w3.org/2000/svg" viewBox="0 0 50 50"><defs><style>.cls-1{fill:#38f22e;}</style></defs><polygon class="cls-1" points="18.837 19.535 14.59 15.713 13.263 13.377 13.582 8.334 16.607 4.385 21.297 2.92 26.162 4.618 28.816 8.175 29.506 11.731 28.31 15.288 27.702 16.934 24.198 17.342 23.986 10.864 21.756 8.706 19.102 9.796 18.518 11.944 18.837 19.535"/><path d="M38.012,46.354c.35-1.171.712-2.381,1.013-3.581a48.324,48.324,0,0,0,1.467-10.062c.089-2.518.094-5.222.019-8.264a2.872,2.872,0,0,0-2.471-2.542,8.1,8.1,0,0,0-1.286.023,2.516,2.516,0,0,0-.825.271l-.043.018-.666.609-.165-1.513a3.147,3.147,0,0,0-1.3-1.7,3.043,3.043,0,0,0-2.718-.3l-1.167.639-.088-.451a4.529,4.529,0,0,0-.735-1.853l-.112-.192a3.134,3.134,0,0,0-.44-.491c-.295-.29-.423-.423-.379-.53l.917-1.584a8.538,8.538,0,0,0,.217-6.414,8.635,8.635,0,0,0-5.231-5.057,10.1,10.1,0,0,0-1.25-.325l-.026-.006c-.262-.055-.479-.1-.692-.152l-1.558.013c-.121.032-.3.069-.49.107-.43.087-.836.168-1.221.286a8.466,8.466,0,0,0-1.435,15.6,1.561,1.561,0,0,1,.875,1.487q-.011,2.206-.007,4.413v2.38a3.337,3.337,0,0,1-.02.353l-.151,2.206L16.212,28.01c-.229-.22-.394-.378-.564-.527a3.746,3.746,0,0,0-6.2,2.484,3.925,3.925,0,0,0,1.16,3.087c1.242,1.255,2.489,2.5,3.763,3.775l.27.27q1.593,1.592,3.186,3.189a3.237,3.237,0,0,1,.667.974c.769,1.742,1.562,3.563,2.356,5.413a.58.58,0,0,0,.651.419q4.894-.008,9.785-.005h6.019c.441,0,.51-.08.611-.422Zm-19.8-34.786c0,1.1,0,2.2,0,3.3v3.909l-1.559-1.214a7.549,7.549,0,0,1-2.917-4.634,7.707,7.707,0,0,1,7.64-9.237c.145,0,.289,0,.434.01a7.8,7.8,0,0,1,7.2,7.691,7.6,7.6,0,0,1-1.381,4.385,1.386,1.386,0,0,1-.846.619c-.3.058-.613.1-.953.148l-1.442.2V15.1c-.006-.433-.006-.868-.006-1.3,0-.937,0-1.9-.07-2.816a2.866,2.866,0,0,0-1.522-2.264,2.953,2.953,0,0,0-2.815-.092A3.042,3.042,0,0,0,18.214,11.568ZM37.527,45.36c-.019.061-.042.124-.069.191l-.007.021-.285.747H31c-2.738.005-5.5,0-8.254.013a1.678,1.678,0,0,1-1.705-1.145c-.6-1.447-1.248-2.935-1.974-4.547A2.222,2.222,0,0,0,18.634,40c-1.443-1.456-2.911-2.924-4.282-4.295l-3.124-3.126a3.022,3.022,0,0,1-.78-3.463l.009-.024A2.942,2.942,0,0,1,12.6,27.389a3.044,3.044,0,0,1,2.723.836c.6.581,1.195,1.178,1.768,1.756q.492.5.984.986a2.381,2.381,0,0,0,.324.286.361.361,0,0,0,.339.037.336.336,0,0,0,.207-.248,2.85,2.85,0,0,0,.04-.552q.006-6.288,0-12.575V11.628a2.323,2.323,0,0,1,3.406-2.259,2.26,2.26,0,0,1,1.123,1.447,3.922,3.922,0,0,1,.1.949l0,12.964c0,.448.112.488.254.537a.374.374,0,0,0,.3-.019.338.338,0,0,0,.173-.223,1.947,1.947,0,0,0,.037-.433l0-2.352c0-.913,0-1.824.008-2.736A2.283,2.283,0,0,1,26.613,17.2a2.343,2.343,0,0,1,2.378,2.041,4.018,4.018,0,0,1,.027.568v1.707c0,1.1,0,2.28.009,3.433a.343.343,0,0,0,.317.345.37.37,0,0,0,.379-.2,1.249,1.249,0,0,0,.061-.423c.008-.46.007-.927,0-1.366v-.963A2.316,2.316,0,0,1,32.1,19.9a2.35,2.35,0,0,1,2.323,2.432c.007.493.006.98,0,1.437v.917c0,.6.228.605.363.61.229.022.365-.068.42-.575a2.369,2.369,0,0,1,1.247-1.867,2.324,2.324,0,0,1,3.365,2.039C39.954,30.6,39.816,38.079,37.527,45.36Z"/></svg>