<svg id="Layer_1" data-name="Layer 1" xmlns="http://www.w3.org/2000/svg" viewBox="0 0 50 50"><defs><style>.cls-1{fill:none;stroke:#000;stroke-miterlimit:10;stroke-width:0.6px;}.cls-2{fill:#38f22e;}</style></defs><path class="cls-1" d="M34.449,37.3,24.467,47.363l-9.86-10.048c.142-.006.224-.013.307-.013,1.037,0,2.074-.006,3.111,0,.22,0,.274-.068.274-.279-.007-2.222,0-4.443-.009-6.664a.7.7,0,0,1,.214-.539q2.428-2.508,4.844-5.029c.056-.057.107-.119.175-.2-.124-.133-.237-.259-.355-.381q-2.346-2.418-4.695-4.833a.591.591,0,0,1-.182-.453q.009-3.014,0-6.027c0-.322,0-.323-.321-.323H14.6L24.574,2.53l9.85,10.034c-.148.008-.231.016-.314.016H31.072c-.333,0-.334,0-.335.344,0,2.049,0,4.1,0,6.149a.705.705,0,0,1-.22.539q-2.256,2.332-4.5,4.677c-.09.094-.176.191-.278.3.052.065.091.124.139.175q2.328,2.486,4.661,4.966a.661.661,0,0,1,.2.5q-.009,3.356,0,6.712c0,.36,0,.361.363.361h3.349Z"/><path class="cls-1" d="M10.5,34.527V29.818c0-.336,0-.336-.328-.336H2.238c-.322,0-.323,0-.323-.318V20.025c0-.316,0-.316.328-.316H10.18c.323,0,.324,0,.324-.317V14.664c.025.028.025.028.051.06L20.567,24.65Z"/><path class="cls-1" d="M28.626,24.546,38.661,14.7c.006.144.014.235.014.325q0,2.18,0,4.36c0,.327,0,.329.323.329H46.96c.326,0,.326,0,.326.315v9.137c0,.317,0,.318-.32.318H39.055c-.378,0-.379,0-.379.369v4.654c-.023-.014-.039-.04-.058-.054Z"/><path d="M24.826,27.8A3.175,3.175,0,1,1,28,24.626,3.178,3.178,0,0,1,24.826,27.8Zm0-5.624a2.449,2.449,0,1,0,2.449,2.449A2.452,2.452,0,0,0,24.826,22.177Z"/><circle class="cls-2" cx="24.826" cy="24.626" r="2.657"/></svg>