<svg xmlns="http://www.w3.org/2000/svg" id="Layer_1" data-name="Layer 1" viewBox="0 0 400 300"><defs><style>.cls-1{fill:#38f22e;}.cls-2{fill-rule:evenodd;}</style></defs><polygon class="cls-1" points="137.773 113.626 194.733 88.172 251.779 113.626 251.779 186.762 194.689 214.367 137.773 186.762 137.773 113.626"></polygon><path class="cls-2" d="M195.837,272.2,300.2,215.676a2.342,2.342,0,0,0,1.232-2.065l0-126.227-.029-.266c-.006-.047-.019-.1-.032-.156l-.092-.311c-.01-.028-.031-.082-.055-.137l-.065-.13c-.024-.048-.049-.09-.074-.131l-.09-.138c-.026-.037-.062-.084-.1-.13l-.1-.11c-.029-.031-.069-.07-.109-.107L300,85.31,195.67,37.492a2.347,2.347,0,0,0-1.957,0L89.38,85.311c-.041.024-.081.045-.121.066l-.114.055.076-.057-.258.178c-.057.039-.112.077-.164.119l-.059.055c-.074.069-.12.111-.163.157l-.083.1c-.033.04-.075.091-.113.145l-.073.114c-.031.049-.061.1-.09.156l-.053.113c-.026.055-.048.113-.069.17l-.036.1c-.023.076-.037.137-.05.2l-.026.127c-.01.061-.014.135-.02.209l-.008.111c0,.032,0,.072-.006.115V213.611a2.339,2.339,0,0,0,1.228,2.063l104.634,56.658c.056.022.115.038.172.056l.12.04c.059.016.132.027.207.04l.145.027a3.441,3.441,0,0,0,.539-.011.429.429,0,0,1,.109-.022c.04-.007.113-.018.185-.037l.1-.035c.066-.02.125-.036.18-.058ZM296.73,212.21l-99.691,54V215.116l55.517-25.669c.086-.061.133-.094.177-.13l.08-.075c.061-.057.106-.1.147-.143l.1-.112c.021-.028.058-.074.091-.121l.082-.123c.029-.049.06-.1.091-.163l.06-.125c.013-.029.034-.083.053-.138l.047-.137a1.6,1.6,0,0,0,.045-.188l.026-.119c.011-.071.013-.138.018-.2l.015-.24V114.966L296.73,91.433Zm-47.845-28.632-51.846-27.917V91.144l51.846,23.93Zm-54.2-141.366,99.148,45.443-42.691,23.286-55.472-25.6a2.263,2.263,0,0,0-.518-.163l-.07-.015c-.057-.008-.121-.014-.187-.02l-.126-.014c.027,0-.026.006-.078.007l-.527.059c-.1.023-.154.033-.207.05l-.064.027c-.1.036-.157.054-.209.077l-55.454,25.6L95.542,87.655ZM192.34,91.145v64.517L140.5,183.579v-68.5Zm0,175.066-99.691-54V91.433l43.146,23.533.017,72.736c0,.064.007.116.015.167l.025.117c.018.085.03.141.046.2l.043.123c.024.068.044.117.066.166l.062.127c.025.049.054.1.084.149l.078.119c.027.037.065.085.1.133l.089.1c.039.042.076.076.112.11l.129.118c.02.015.064.047.108.077l.163.114c.047.023.087.044.127.066l.131.073,55.147,25.454Zm2.35-55.19L143.4,187.352l51.289-27.615,51.286,27.615Z"></path></svg>