<svg xmlns="http://www.w3.org/2000/svg" id="Layer_1" data-name="Layer 1" viewBox="0 0 400 300"><defs><style>.cls-1{fill:#38f22e;}</style></defs><path class="cls-1" d="M198.6,112.034l-15.3,5.745a5.649,5.649,0,0,0-3.661,5.288v18.08a5.649,5.649,0,0,0,1.934,4.256l13.907,12.135c2.057,1.795,5.955,2.87,8.088,1.165l11.718-9.154c.878-.7,2.634-4.427,2.971-5.5l2.07-6.6a5.645,5.645,0,0,0,.259-1.691V123.645c0-2.239.578-4.868-1.471-5.77l-16.256-5.723A5.644,5.644,0,0,0,198.6,112.034Z"></path><path d="M318.214,150a21.8,21.8,0,0,0-21.527-21.737l-1.075-.011-.249-1.044a97.628,97.628,0,0,0-11.829-28.5l-.569-.924.766-.767a21.74,21.74,0,0,0-30.752-30.739l-.767.767-.924-.569a97.24,97.24,0,0,0-28.5-11.886l-1.044-.249-.012-1.073a21.738,21.738,0,0,0-43.472,0l-.014,1.072-1.042.249a97.226,97.226,0,0,0-28.5,11.886l-.924.569-.768-.767a21.74,21.74,0,0,0-30.752,30.738l.765.767-.569.924a97.668,97.668,0,0,0-11.828,28.506l-.25,1.044-1.073.011a21.738,21.738,0,0,0,0,43.474l1.074.011.25,1.043A97.662,97.662,0,0,0,116.465,201.3l.569.924-.766.767a21.74,21.74,0,0,0,30.751,30.738l.768-.767.924.569a97.165,97.165,0,0,0,28.5,11.886l1.042.249.014,1.072a21.738,21.738,0,0,0,43.473-.034l.011-1.074,1.046-.249a97.359,97.359,0,0,0,28.468-11.764l.918-.565.768.758a21.738,21.738,0,0,0,30.768-30.715l-.756-.768.565-.917a97.4,97.4,0,0,0,11.85-28.614l.249-1.046,1.075-.011A21.807,21.807,0,0,0,318.214,150ZM253.949,70.265a.923.923,0,0,0,.074-.154l.184-.306c.39-.471.731-.847,1.077-1.194A18.46,18.46,0,0,1,281.39,94.717c-.339.34-.7.673-1.148,1.046l-.305.19a1.076,1.076,0,0,0-.189.1,18.44,18.44,0,0,1-17.323,3.08l-.106-.035c-.464-.158-.918-.334-1.351-.521L260.6,98.4c-.37-.169-.749-.353-1.115-.55-.111-.062-.209-.121-.307-.18l-.334-.2c-.3-.175-.564-.333-.826-.513-.2-.135-.406-.29-.61-.444l-.37-.277c-.128-.092-.274-.2-.412-.312-.48-.4-.917-.789-1.333-1.2s-.807-.849-1.209-1.337c-.1-.124-.193-.25-.286-.376l-.3-.4c-.152-.2-.311-.412-.461-.635-.175-.262-.336-.535-.5-.818l-.109-.182c-.106-.174-.187-.309-.26-.444-.2-.364-.374-.726-.542-1.094l-.166-.354c-.2-.475-.373-.911-.541-1.4l-.04-.117A18.437,18.437,0,0,1,253.949,70.265ZM200,35.066a18.48,18.48,0,0,1,18.459,18.459c0,.46-.028.912-.063,1.362l-.078.348a.928.928,0,0,0-.059.2,18.554,18.554,0,0,1-7.182,12.829l-.106.079c-.375.282-.767.546-1.161.8-.131.081-.252.155-.376.228-.331.2-.679.4-1.029.574-.13.068-.267.134-.405.2l-.175.082c-.3.144-.617.288-.928.415-.194.078-.387.147-.582.217l-.227.082c-.268.1-.535.191-.808.273s-.52.142-.785.2l-.4.1c-.169.044-.338.086-.507.12-.334.064-.674.112-1.011.157l-.384.055c-.113.018-.242.039-.38.051-.617.061-1.21.09-1.812.09s-1.2-.03-1.823-.091c-.126-.013-.254-.033-.383-.053l-.355-.051c-.364-.049-.693-.094-1.015-.157-.17-.035-.325-.073-.481-.111l-.366-.091c-.3-.073-.581-.142-.845-.22s-.535-.175-.846-.287l-.139-.049c-.226-.08-.431-.152-.63-.232-.323-.131-.635-.274-.949-.425-.278-.13-.424-.2-.571-.276-.352-.181-.7-.376-1.039-.581l-.35-.214q-.617-.389-1.166-.8l-.107-.08a18.58,18.58,0,0,1-7.192-12.849.958.958,0,0,0-.048-.147l-.078-.321c-.049-.505-.076-.961-.076-1.423A18.48,18.48,0,0,1,200,35.066ZM118.611,68.611a18.481,18.481,0,0,1,26.106,0c.338.339.681.716,1.048,1.153l.19.3a1.044,1.044,0,0,0,.107.208,18.415,18.415,0,0,1,3.081,17.256l-.068.194c-.148.437-.319.875-.5,1.308l-.188.406c-.166.361-.343.725-.534,1.08-.077.138-.156.271-.236.4l-.194.324c-.142.24-.288.486-.448.726-.136.2-.281.4-.428.59l-.32.428c-.107.147-.2.271-.3.389-.4.483-.794.922-1.211,1.34s-.839.8-1.332,1.2c-.15.123-.3.23-.444.338l-.348.26c-.21.16-.408.308-.613.445-.288.193-.581.367-.9.554l-.168.1c-.128.077-.255.152-.385.224-.371.2-.752.386-1.226.6l-.219.1c-.488.212-.948.388-1.4.542l-.1.036a18.439,18.439,0,0,1-17.318-3.07.728.728,0,0,0-.164-.084l-.3-.18c-.49-.407-.855-.739-1.192-1.077A18.491,18.491,0,0,1,118.611,68.611ZM105.329,168.3l-.34.084c-.521.046-.988.074-1.464.074a18.459,18.459,0,0,1,0-36.918c.476,0,.943.028,1.408.065l.347.078a.937.937,0,0,0,.184.058,18.4,18.4,0,0,1,13.714,8.521l.142.233c.227.374.442.758.643,1.147.076.147.141.289.211.438.177.368.332.714.476,1.066.067.164.127.333.187.5l.076.213c.106.294.211.586.3.885.07.233.128.474.186.714l.094.377c.048.187.1.39.138.593.065.328.11.66.162,1.055l.04.27c.026.168.046.3.059.426.061.619.092,1.23.092,1.818a18.1,18.1,0,0,1-.092,1.812c-.014.143-.036.283-.057.422l-.047.322c-.047.353-.092.684-.156,1.009-.04.206-.091.407-.142.607l-.1.385c-.055.228-.111.464-.182.7-.086.288-.187.572-.305.9l-.065.181c-.075.209-.13.361-.19.514-.143.354-.3.7-.465,1.041l-.218.451c-.207.4-.422.788-.657,1.175l-.124.2a18.415,18.415,0,0,1-13.727,8.537A.673.673,0,0,0,105.329,168.3Zm40.728,61.429a.836.836,0,0,0-.081.162l-.18.3c-.392.473-.734.849-1.078,1.194a18.46,18.46,0,1,1-26.108-26.1c.339-.339.7-.67,1.145-1.042l.3-.185a1.406,1.406,0,0,0,.2-.1,18.448,18.448,0,0,1,17.289-3.095l.19.068c.43.146.871.316,1.3.5l.4.184c.369.171.736.347,1.094.541.146.081.288.166.428.25l.217.129c.29.172.556.329.816.507.21.142.417.3.624.455l.355.264c.156.112.292.213.429.328.471.386.918.79,1.326,1.2s.8.844,1.208,1.336c.1.126.193.249.284.373l.291.389c.164.217.324.429.472.65.177.266.341.541.529.862l.1.172c.092.154.169.284.24.413.2.362.371.725.539,1.087l.17.365c.2.471.374.909.527,1.36l.053.153A18.436,18.436,0,0,1,146.057,229.73ZM200,264.934a18.48,18.48,0,0,1-18.459-18.459c0-.46.027-.911.063-1.364l.077-.343a.952.952,0,0,0,.06-.195,18.549,18.549,0,0,1,7.182-12.832l.106-.079c.375-.282.767-.546,1.166-.8.115-.073.234-.144.357-.216.344-.207.692-.4,1.044-.585.156-.08.315-.157.547-.266.34-.159.65-.3.966-.431.207-.084.417-.158.627-.232l.213-.076c.253-.091.511-.183.781-.263.251-.076.514-.14.779-.2l.373-.094c.2-.049.364-.09.534-.124.335-.065.675-.113,1.012-.158l.384-.055c.113-.018.242-.039.379-.051a18.21,18.21,0,0,1,3.624,0c.144.015.281.036.417.057l.352.05c.345.047.668.091.986.153.2.041.4.09.594.14l.443.109c.247.061.449.11.644.168.305.093.6.2.971.331.239.084.44.156.634.234.347.14.686.294,1.074.477l.416.2c.4.205.784.42,1.162.651l.231.142a18.4,18.4,0,0,1,8.521,13.731.706.706,0,0,0,.045.137l.083.344c.044.515.071.974.071,1.442A18.48,18.48,0,0,1,200,264.934Zm81.271-33.545a18.457,18.457,0,0,1-26.1,0c-.371-.372-.712-.763-.982-1.082l-.19-.3a1.192,1.192,0,0,0-.1-.189,18.407,18.407,0,0,1-3.61-15.759l.035-.138c.106-.442.239-.9.386-1.359l.128-.373c.137-.391.282-.776.444-1.155.057-.134.116-.261.178-.387l.082-.177c.147-.315.3-.636.47-.951.1-.192.219-.383.335-.572l.162-.272c.14-.236.26-.435.392-.633.167-.252.358-.5.6-.821l.172-.234c.1-.134.183-.25.282-.369.378-.462.785-.912,1.209-1.337s.853-.81,1.314-1.19c.235-.193.478-.37.723-.549l.395-.289c.063-.05.157-.121.248-.184.408-.276.836-.54,1.31-.8l.078-.049a18.406,18.406,0,0,1,20.493,1.817.716.716,0,0,0,.165.087l.3.181c.4.335.748.647,1.081.979A18.494,18.494,0,0,1,281.271,231.389Zm10.775-58.68a93.956,93.956,0,0,1-10.941,26.415l-.7,1.162-1.17-.69a21.922,21.922,0,0,0-18.45-1.672l-.2.071c-.466.175-.942.373-1.41.587-.148.067-.293.138-.439.208-.4.2-.806.4-1.2.625-.131.073-.252.147-.372.22l-.3.185c-.32.195-.637.389-.948.6-.239.163-.467.338-.7.515l-.379.287c-.187.138-.341.253-.487.376-.558.462-1.049.908-1.5,1.363s-.907.954-1.4,1.544c-.072.088-.141.18-.211.272l-.2.272c-.28.363-.55.718-.795,1.081-.134.2-.258.4-.383.6l-.083.135c-.2.319-.392.644-.572.97q-.231.421-.443.853c-.144.289-.278.58-.4.873-.148.336-.289.666-.419,1-.061.162-.12.333-.177.5l-.066.194c-.142.415-.277.81-.385,1.206l-.031.126a22,22,0,0,0,2.189,16.722l.683,1.17-1.158.7a94.184,94.184,0,0,1-26.276,10.862l-1.32.325-.34-1.316a21.959,21.959,0,0,0-9.908-13.215l-.178-.11c-.127-.078-.24-.148-.357-.213-.273-.154-.558-.3-.844-.439l-.094-.047c-.315-.156-.59-.294-.873-.422s-.557-.234-.846-.349c-.362-.144-.7-.269-1.055-.388-.27-.091-.547-.181-.835-.264-.38-.111-.765-.207-1.155-.3l-.177-.041c-.216-.051-.418-.1-.626-.139-.437-.083-.886-.147-1.339-.2l-.255-.036c-.161-.024-.291-.042-.42-.053a20.666,20.666,0,0,0-4.176,0c-.135.014-.27.033-.406.053l-.245.034c-.475.062-.935.125-1.382.212-.22.042-.43.091-.642.142l-.117.028c-.411.094-.813.2-1.21.312-.268.077-.529.158-.781.244-.381.129-.748.265-1.159.428-.3.12-.522.209-.743.308-.334.148-.658.308-.971.469l-.158.08c-.234.117-.461.23-.684.355-.181.1-.354.21-.527.318l-.2.123a22.014,22.014,0,0,0-9.753,13.148l-.339,1.318-1.322-.326a94.086,94.086,0,0,1-26.333-11l-1.148-.7.672-1.164a22.038,22.038,0,0,0,1.629-18.215l-.142-.409c-.14-.369-.31-.765-.486-1.158-.1-.229-.206-.457-.317-.685q-.243-.5-.511-.981c-.161-.291-.331-.571-.517-.871-.172-.28-.331-.537-.5-.792-.231-.341-.483-.671-.74-1.008l-.165-.218c-.1-.135-.195-.261-.295-.381-.469-.569-.923-1.071-1.386-1.534s-.975-.926-1.532-1.383c-.125-.105-.248-.2-.37-.288l-.212-.159c-.348-.268-.687-.524-1.035-.761-.253-.172-.513-.332-.783-.5-.3-.184-.585-.357-.875-.517-.323-.178-.646-.345-.977-.509-.226-.11-.462-.218-.695-.322-.393-.176-.78-.342-1.179-.493l-.388-.135a22.06,22.06,0,0,0-18.212,1.639l-1.165.672-.7-1.15a94.344,94.344,0,0,1-10.943-26.35l-.326-1.319,1.316-.342a21.979,21.979,0,0,0,13.209-9.918l.124-.2c.069-.112.132-.213.193-.322.152-.268.291-.55.431-.833l.088-.175c.139-.279.266-.532.379-.789.132-.293.248-.585.363-.879.138-.343.262-.686.38-1.034.09-.273.18-.551.263-.837.11-.379.207-.764.3-1.157l.04-.17c.049-.21.1-.417.138-.625.085-.44.148-.888.2-1.336l.036-.254c.022-.149.043-.292.058-.447.066-.775.1-1.436.1-2.075,0-.664-.035-1.344-.1-2.079-.013-.145-.034-.283-.053-.42l-.035-.248c-.06-.47-.123-.919-.208-1.359-.04-.21-.089-.417-.138-.625l-.04-.173c-.091-.39-.188-.777-.3-1.16-.081-.28-.17-.558-.264-.839q-.175-.515-.377-1.028c-.115-.29-.232-.583-.363-.879-.126-.279-.265-.564-.406-.843l-.076-.152c-.142-.284-.273-.548-.422-.812-.054-.094-.117-.2-.181-.3l-.123-.2a21.973,21.973,0,0,0-13.216-9.932l-1.316-.342.326-1.319a94.487,94.487,0,0,1,10.942-26.349l.7-1.152,1.165.676a21.7,21.7,0,0,0,18.207,1.636l.428-.15c.365-.138.758-.306,1.141-.478.239-.107.471-.214.708-.328.321-.158.648-.329.972-.508.286-.158.568-.328.847-.5s.546-.336.811-.517c.347-.235.679-.489,1.016-.746l.216-.164c.133-.1.258-.193.377-.291.564-.464,1.067-.919,1.54-1.391s.921-.97,1.378-1.527c.107-.127.2-.251.293-.374l.173-.231c.258-.335.509-.667.74-1.006.182-.269.35-.542.518-.816s.341-.559.5-.846c.18-.324.352-.651.512-.981.107-.218.2-.435.3-.653.191-.429.361-.824.516-1.234l.121-.349a22.062,22.062,0,0,0-1.623-18.234l-.672-1.164,1.148-.7a94.034,94.034,0,0,1,26.333-11l1.322-.326.339,1.318a21.992,21.992,0,0,0,9.743,13.142l.2.125c.178.11.356.223.54.326.21.117.433.229.657.341l.164.082c.328.167.653.328.983.476.231.1.465.2.77.319.388.153.755.29,1.131.416.256.085.516.169.774.243.4.12.809.221,1.212.313l.129.032c.208.049.417.1.629.138.457.088.916.152,1.385.212l.268.036c.139.021.263.04.393.052a20.607,20.607,0,0,0,4.17,0c.135-.013.267-.033.4-.053l.251-.034c.47-.061.93-.124,1.377-.211.22-.042.43-.091.642-.142l.117-.028c.411-.094.813-.2,1.21-.312.271-.078.53-.161.79-.247.373-.125.739-.262,1.1-.4.267-.106.53-.21.786-.328.34-.149.664-.309.982-.472l.154-.078c.234-.117.461-.23.684-.355.181-.1.354-.21.527-.318l.2-.123a22.008,22.008,0,0,0,9.753-13.148l.339-1.318,1.323.326a94.124,94.124,0,0,1,26.332,11l1.147.7-.671,1.164A22.048,22.048,0,0,0,247.9,89l.047.134c.031.094.056.166.081.233.156.408.323.8.5,1.2.106.234.21.464.322.693.16.324.331.653.509.977.159.288.328.568.5.85s.334.543.516.811c.233.341.485.675.736,1l.135.177c.11.148.215.286.322.415a20.47,20.47,0,0,0,1.393,1.544c.47.471.97.922,1.528,1.381.131.11.259.2.39.3l.215.163c.336.257.667.509,1.008.742.27.184.543.352.814.517s.56.341.842.5c.333.185.663.357,1,.523.215.105.441.208.664.307.4.179.8.352,1.218.509l.328.113a21.736,21.736,0,0,0,18.253-1.619l1.165-.676.7,1.153a94.374,94.374,0,0,1,10.943,26.348l.326,1.319-1.316.342a21.977,21.977,0,0,0-13.209,9.917l-.123.2c-.069.113-.134.216-.195.326-.14.248-.27.508-.4.772l-.106.214c-.138.273-.272.541-.392.813-.13.29-.246.582-.363.88-.132.339-.258.678-.378,1.032-.093.283-.183.554-.259.822-.112.39-.21.774-.3,1.164l-.039.162c-.048.208-.1.42-.138.632-.085.445-.15.892-.207,1.347l-.037.261c-.021.145-.04.285-.055.428-.068.75-.1,1.432-.1,2.082s.035,1.343.1,2.08c.013.133.031.262.05.389l.039.268c.06.479.124.93.208,1.37.045.228.1.456.151.682l.025.11c.09.393.187.781.3,1.156.084.293.173.569.265.846.117.346.245.691.379,1.031.115.291.232.581.36.869s.276.582.418.868c.157.318.315.632.488.944.062.109.132.224.2.339l.116.191a21.991,21.991,0,0,0,13.212,9.907l1.315.34Zm3.034-4.315-.352-.08a.862.862,0,0,0-.187-.058,18.564,18.564,0,0,1-12.84-7.236c-.313-.419-.6-.836-.871-1.272l-.157-.257c-.225-.372-.437-.746-.633-1.131-.063-.124-.125-.254-.215-.448-.179-.376-.333-.712-.471-1.057-.072-.171-.137-.356-.2-.541l-.07-.195c-.1-.284-.2-.567-.291-.858-.07-.242-.13-.481-.187-.72l-.094-.379c-.048-.186-.1-.384-.137-.586-.06-.305-.1-.609-.144-.914l-.065-.461c-.02-.131-.039-.257-.054-.4a17.5,17.5,0,0,1-.094-1.8c0-.586.031-1.2.092-1.815.016-.155.038-.3.062-.454l.05-.339c.041-.311.086-.637.147-.954.043-.212.092-.409.143-.606l.1-.407c.054-.227.11-.454.178-.681.082-.274.179-.547.3-.88l.074-.212c.069-.2.125-.35.185-.5.142-.354.3-.7.466-1.044l.206-.425c.218-.426.432-.807.663-1.19l.133-.218a18.407,18.407,0,0,1,13.722-8.531.53.53,0,0,0,.131-.043l.343-.084c.522-.046.989-.074,1.465-.074a18.459,18.459,0,0,1,0,36.918C296,168.459,295.541,168.431,295.08,168.394Z"></path><path d="M244.377,178.639a1.421,1.421,0,0,0-1.419-1.42H240.8v-48.53a5.182,5.182,0,0,0-5.169-5.167H221.957v-4.688a1.416,1.416,0,0,0-.894-1.319l-20.535-8.21a1.408,1.408,0,0,0-1.056,0l-20.538,8.214a1.41,1.41,0,0,0-.891,1.316v4.688H164.369a5.183,5.183,0,0,0-5.167,5.168v48.529h-2.16a1.421,1.421,0,0,0-1.419,1.42v5.606a6.565,6.565,0,0,0,6.553,6.553h75.649a6.566,6.566,0,0,0,6.552-6.554ZM200,112.152l19.117,7.646v16a18.325,18.325,0,0,1-7.8,14.98L200,158.7l-11.31-7.92a18.329,18.329,0,0,1-7.8-14.979l0-16.006Zm-37.958,16.537a2.33,2.33,0,0,1,2.328-2.328h13.673V135.8a21.177,21.177,0,0,0,9.013,17.312l12.129,8.488a1.423,1.423,0,0,0,1.628,0l12.132-8.49a21.178,21.178,0,0,0,9.012-17.313v-9.433H235.63a2.33,2.33,0,0,1,2.328,2.328v48.53H162.042Zm79.5,55.554a3.721,3.721,0,0,1-3.713,3.715H162.177a3.722,3.722,0,0,1-3.715-3.711v-4.189h83.076Z"></path><path d="M203.57,144.643V123.154a1.1,1.1,0,0,0-1-1.1c-1.405-.146-1.687,0-3.421,1.2l-.769.532q-1.255.87-2.507,1.741c-1.391.968-1.646,1.706-1.139,3.292a.226.226,0,0,0,.135.14.183.183,0,0,0,.18-.021l6.042-4.073V143.2c0,.754,0,2.017.4,2.323a.643.643,0,0,0,.439.109,4.1,4.1,0,0,0,1-.174A.854.854,0,0,0,203.57,144.643Z"></path></svg>