<svg xmlns="http://www.w3.org/2000/svg" id="Layer_1" data-name="Layer 1" viewBox="0 0 400 300"><defs><style>.cls-1{fill:#38f22e;}.cls-2{fill:#fff;}</style></defs><circle class="cls-1" cx="123.05" cy="90.132" r="45.842"></circle><path class="cls-2" d="M324.19,146.7a43.736,43.736,0,0,0,4.979-1.528S328.085,150.421,324.19,146.7Z"></path><path d="M229.213,98.836a58.04,58.04,0,0,0-58.3-58.3h-4.352a58.5,58.5,0,0,0-21.728,4.148l-1.017.405-1-.438a49.592,49.592,0,1,0-36.3,92.237l1.75.618v83.17A1.728,1.728,0,0,0,110,222.405h78.319a1.7,1.7,0,0,0,.317-.035l.122-.021a1.725,1.725,0,0,0,.213-.075,2.373,2.373,0,0,0,.29-.143l.082-.059a1.816,1.816,0,0,0,.175-.153,2.225,2.225,0,0,0,.193-.209c.024-.04.044-.078.061-.109l.277-.858.006-.218V174.538h24.383a1.728,1.728,0,0,0,1.726-1.727V135.374h11.327a1.729,1.729,0,0,0,1.727-1.727Zm-118.388,35.8-.182-.052-.177-.049-.36-.1h0A46.148,46.148,0,0,1,123.05,43.992a45.69,45.69,0,0,1,19.984,4.54,46.148,46.148,0,0,1-19.984,87.74c-1.06,0-2.134-.036-3.195-.108a46.421,46.421,0,0,1-9.03-1.528Zm114.935-2.716H214.433a1.728,1.728,0,0,0-1.727,1.726v37.438H188.323a1.728,1.728,0,0,0-1.726,1.726v44.512l-58.192-41.565a1.736,1.736,0,0,0-2.409.4,1.727,1.727,0,0,0,.4,2.409l56.537,40.383H111.722V138.521l3.5.582c.434.068.887.137,1.343.2.226.03.45.056.673.081.428.051.847.095,1.268.134l.7.059c.425.032.868.059,1.311.08l.616.033c.63.023,1.272.04,1.915.04a49.65,49.65,0,0,0,49.594-49.593c0-1.184-.043-2.381-.127-3.558s-.21-2.369-.376-3.516-.374-2.319-.622-3.471a49.208,49.208,0,0,0-6.695-16.2c-.49-.762-1.046-1.567-1.751-2.531l-.444-.6c-.69-.913-1.313-1.693-1.9-2.381l-.062-.071c-.569-.663-1.223-1.375-2-2.181-.172-.179-.345-.354-.518-.528-.792-.794-1.51-1.476-2.195-2.083L155.8,52.9c-.666-.585-1.388-1.182-2.214-1.829-.195-.153-.39-.3-.587-.454l-.525-.405-4.515-3.334,5.461-1.325a55.747,55.747,0,0,1,13.141-1.556h4.352c30.753,0,54.843,24.09,54.843,54.844Z"></path><path d="M149.159,88.28a1.853,1.853,0,0,0-1.851,1.852,24.258,24.258,0,1,1-48.516,0,1.852,1.852,0,1,0-3.7,0,27.961,27.961,0,1,0,55.922,0A1.854,1.854,0,0,0,149.159,88.28Z"></path><path d="M140.4,74.689a2.772,2.772,0,1,0-3.918,0A2.9,2.9,0,0,0,140.4,74.689Z"></path><path d="M107.664,69.959a2.77,2.77,0,0,0-1.959,4.73,2.9,2.9,0,0,0,3.919,0,2.771,2.771,0,0,0-1.96-4.73Z"></path><path d="M94.452,251.6a4.28,4.28,0,0,0,4.275,4.275H244.768a4.28,4.28,0,0,0,4.275-4.275v-.434a4.28,4.28,0,0,0-4.275-4.275H227l-1.23-1.264H218.09l-1.959,1.8-1.959-1.8h-7.02l-1.95,1.812-1.95-1.812h-6.934l-1.894,1.875-1.9-1.875h-7.262l-1.809,2-1.81-2h-7.29l-1.732,2.17-1.73-2.17h-7.591l-.907,1.264H146.092a1.5,1.5,0,0,1-.364.669l-.445.478-.665.006H104.585a1.632,1.632,0,0,1-1.224-.552,1.668,1.668,0,0,1-.34-.6H98.727a4.28,4.28,0,0,0-4.275,4.275Z"></path><path d="M242.67,242.717a1.621,1.621,0,0,0,.992.758l3.031.812a1.626,1.626,0,0,0,2-1.153l36.8-137.349a1.632,1.632,0,0,0-1.153-1.995l-3.032-.813a1.607,1.607,0,0,0-.42-.056,1.633,1.633,0,0,0-1.575,1.207l-36.8,137.351A1.612,1.612,0,0,0,242.67,242.717Z"></path><path d="M173.651,187.618l-53.1-37.932a1.775,1.775,0,0,0-2.409.4,1.727,1.727,0,0,0,.4,2.409l53.105,37.931a1.73,1.73,0,0,0,1.706.173,1.727,1.727,0,0,0,.3-2.983Z"></path></svg>