<svg xmlns="http://www.w3.org/2000/svg" id="Layer_1" data-name="Layer 1" viewBox="0 0 400 300"><defs><style>.cls-1{fill:#38f22e;}.cls-2{stroke:#fff;}.cls-2,.cls-3,.cls-4{stroke-miterlimit:10;}.cls-3,.cls-4{fill:none;}.cls-3{stroke:#000;stroke-width:2.397px;}.cls-4{stroke:#231f20;stroke-width:5px;}</style></defs><polygon class="cls-1" points="238.819 141.26 238.12 160.667 277.669 195.698 279.56 195.698 297.621 175.084 297.621 171.774 259.065 138.467 238.819 141.26"></polygon><path d="M297.539,170.73l-36.881-32.758a4.291,4.291,0,0,0-3.409-1.085L240.7,139a4.325,4.325,0,0,0-3.812,4.291l-.144,16.682a4.3,4.3,0,0,0,1.479,3.258l36.881,32.758a4.371,4.371,0,0,0,6.153-.364L297.9,176.884A4.373,4.373,0,0,0,297.539,170.73Zm-18.284,23.21a1.768,1.768,0,0,1-2.462.146l-36.88-32.759a1.7,1.7,0,0,1-.592-1.3l.145-16.682a1.767,1.767,0,0,1,1.543-1.738l16.549-2.112a1.819,1.819,0,0,1,1.363.434L295.8,172.686a1.768,1.768,0,0,1,.146,2.461Z"></path><path d="M260.225,158.478l-1.032-.916a1.91,1.91,0,0,1-.061-2.775,1.964,1.964,0,0,1,2.576.053l1.249,1.11a1.194,1.194,0,0,1,.248,1.58.392.392,0,0,0,.079.459l1.412,1.254a.343.343,0,0,0,.513-.03,3.953,3.953,0,0,0-.4-5.02l1.254-1.412a.343.343,0,0,0-.03-.513l-1.412-1.254a.343.343,0,0,0-.513.03l-1.255,1.412a4.464,4.464,0,0,0-6.111,1.083,4.582,4.582,0,0,0,.823,6.075l.923.82a1.91,1.91,0,0,1,.062,2.775,1.964,1.964,0,0,1-2.576-.053l-1.25-1.11a1.2,1.2,0,0,1-.248-1.581c.1-.108.03-.362-.078-.458l-1.412-1.254a.343.343,0,0,0-.513.03,3.951,3.951,0,0,0,.4,5.019l-1.255,1.413a.343.343,0,0,0,.031.512l1.412,1.255a.343.343,0,0,0,.513-.031l1.254-1.412a4.624,4.624,0,0,0,5.484-.376A4.547,4.547,0,0,0,260.225,158.478Z"></path><path d="M270.654,167.742l-1.032-.917a1.91,1.91,0,0,1-.061-2.775,1.964,1.964,0,0,1,2.576.053l1.249,1.11a1.194,1.194,0,0,1,.248,1.58.391.391,0,0,0,.079.459l1.412,1.254a.343.343,0,0,0,.513-.03,3.955,3.955,0,0,0-.4-5.02l1.254-1.412a.343.343,0,0,0-.03-.513l-1.413-1.254a.342.342,0,0,0-.512.03l-1.255,1.412a4.464,4.464,0,0,0-6.111,1.083,4.582,4.582,0,0,0,.823,6.075l.923.82a1.91,1.91,0,0,1,.061,2.775,1.964,1.964,0,0,1-2.576-.053l-1.249-1.11a1.194,1.194,0,0,1-.248-1.58.391.391,0,0,0-.079-.459l-1.412-1.254a.343.343,0,0,0-.513.03,3.953,3.953,0,0,0,.4,5.019l-1.254,1.413a.343.343,0,0,0,.03.513l1.413,1.254a.343.343,0,0,0,.512-.03l1.255-1.413a4.624,4.624,0,0,0,5.484-.376A4.547,4.547,0,0,0,270.654,167.742Z"></path><path d="M281.083,177.005l-1.032-.917a1.91,1.91,0,0,1-.062-2.775,1.964,1.964,0,0,1,2.576.053l1.25,1.11a1.2,1.2,0,0,1,.248,1.58.392.392,0,0,0,.078.459l1.412,1.254a.343.343,0,0,0,.513-.03,3.952,3.952,0,0,0-.4-5.02l1.255-1.412a.344.344,0,0,0-.031-.513l-1.412-1.254a.343.343,0,0,0-.513.03l-1.254,1.413a4.462,4.462,0,0,0-6.111,1.082,4.582,4.582,0,0,0,.822,6.075l.924.82a1.91,1.91,0,0,1,.061,2.775,1.964,1.964,0,0,1-2.576-.053l-1.249-1.11a1.194,1.194,0,0,1-.248-1.58.392.392,0,0,0-.079-.459l-1.412-1.254a.343.343,0,0,0-.513.03,3.953,3.953,0,0,0,.4,5.02l-1.254,1.412a.343.343,0,0,0,.03.513l1.412,1.254a.343.343,0,0,0,.513-.03l1.255-1.413a4.624,4.624,0,0,0,5.484-.376A4.547,4.547,0,0,0,281.083,177.005Z"></path><path d="M251.7,146.632a4.5,4.5,0,1,0,.376,6.359A4.527,4.527,0,0,0,251.7,146.632Zm-4.246,4.78a1.875,1.875,0,0,1-.157-2.666,1.922,1.922,0,0,1,2.666-.158,1.875,1.875,0,0,1,.158,2.666A1.923,1.923,0,0,1,247.456,151.412Z"></path><path class="cls-2" d="M228.931,126.463a5.8,5.8,0,0,0,5.907-5.907V96.925a5.8,5.8,0,0,0-5.907-5.908H122.591a5.8,5.8,0,0,0-5.908,5.908v23.631a5.8,5.8,0,0,0,5.908,5.907h49.231V130.4H122.591a5.8,5.8,0,0,0-5.908,5.908v23.631a5.8,5.8,0,0,0,5.908,5.908h49.231v3.938H122.591a5.8,5.8,0,0,0-5.908,5.908v23.631a5.8,5.8,0,0,0,5.908,5.908h106.34a5.8,5.8,0,0,0,5.907-5.908V175.7a5.8,5.8,0,0,0-5.907-5.908H179.7v-3.938h49.232a5.8,5.8,0,0,0,5.907-5.908V136.31a5.8,5.8,0,0,0-5.907-5.908H179.7v-3.939Zm0,47.263A1.86,1.86,0,0,1,230.9,175.7v23.631a1.86,1.86,0,0,1-1.969,1.969H122.591a1.86,1.86,0,0,1-1.97-1.969V175.7a1.86,1.86,0,0,1,1.97-1.969Zm0-39.386a1.861,1.861,0,0,1,1.969,1.97v23.631a1.861,1.861,0,0,1-1.969,1.969H122.591a1.861,1.861,0,0,1-1.97-1.969V136.31a1.861,1.861,0,0,1,1.97-1.97Zm-106.34-11.815a1.861,1.861,0,0,1-1.97-1.969V96.925a1.861,1.861,0,0,1,1.97-1.97h106.34a1.861,1.861,0,0,1,1.969,1.97v23.631a1.861,1.861,0,0,1-1.969,1.969Z"></path><rect class="cls-2" x="124.56" y="98.894" width="3.939" height="19.693"></rect><circle class="cls-2" cx="138.345" cy="100.863" r="1.969"></circle><circle class="cls-2" cx="138.345" cy="108.74" r="1.969"></circle><circle class="cls-2" cx="138.345" cy="116.617" r="1.969"></circle><circle class="cls-2" cx="154.099" cy="100.863" r="1.969"></circle><circle class="cls-2" cx="154.099" cy="108.74" r="1.969"></circle><circle class="cls-2" cx="154.099" cy="116.617" r="1.969"></circle><circle class="cls-2" cx="146.222" cy="104.802" r="1.969"></circle><circle class="cls-2" cx="146.222" cy="112.679" r="1.969"></circle><circle class="cls-2" cx="161.976" cy="104.802" r="1.969"></circle><circle class="cls-2" cx="161.976" cy="112.679" r="1.969"></circle><circle class="cls-2" cx="169.853" cy="100.863" r="1.969"></circle><circle class="cls-2" cx="169.853" cy="108.74" r="1.969"></circle><circle class="cls-2" cx="169.853" cy="116.617" r="1.969"></circle><circle class="cls-2" cx="185.607" cy="100.863" r="1.969"></circle><circle class="cls-2" cx="185.607" cy="108.74" r="1.969"></circle><circle class="cls-2" cx="185.607" cy="116.617" r="1.969"></circle><circle class="cls-2" cx="177.73" cy="104.802" r="1.969"></circle><circle class="cls-2" cx="177.73" cy="112.679" r="1.969"></circle><path class="cls-2" d="M191.515,98.894v19.692h35.446V98.894Zm3.938,3.938h21.071a13.761,13.761,0,0,0-1.378,5.908,10.956,10.956,0,0,0,1.378,5.908H195.453Zm27.57,0v11.816h-.788c-1.969,0-3.151-2.954-3.151-5.908s1.182-5.908,3.151-5.908Z"></path><rect class="cls-2" x="124.56" y="138.279" width="3.939" height="19.693"></rect><circle class="cls-2" cx="138.345" cy="140.248" r="1.969"></circle><circle class="cls-2" cx="138.345" cy="148.125" r="1.969"></circle><circle class="cls-2" cx="138.345" cy="156.002" r="1.969"></circle><circle class="cls-2" cx="154.099" cy="140.248" r="1.969"></circle><circle class="cls-2" cx="154.099" cy="148.125" r="1.969"></circle><circle class="cls-2" cx="154.099" cy="156.002" r="1.969"></circle><circle class="cls-2" cx="146.222" cy="144.187" r="1.969"></circle><circle class="cls-2" cx="146.222" cy="152.064" r="1.969"></circle><circle class="cls-2" cx="161.976" cy="144.187" r="1.969"></circle><circle class="cls-2" cx="161.976" cy="152.064" r="1.969"></circle><circle class="cls-2" cx="169.853" cy="140.248" r="1.969"></circle><circle class="cls-2" cx="169.853" cy="148.125" r="1.969"></circle><circle class="cls-2" cx="169.853" cy="156.002" r="1.969"></circle><circle class="cls-2" cx="185.607" cy="140.248" r="1.969"></circle><circle class="cls-2" cx="185.607" cy="148.125" r="1.969"></circle><circle class="cls-2" cx="185.607" cy="156.002" r="1.969"></circle><circle class="cls-2" cx="177.73" cy="144.187" r="1.969"></circle><circle class="cls-2" cx="177.73" cy="152.064" r="1.969"></circle><path class="cls-2" d="M226.961,157.972V138.279H191.515v19.693Zm-3.938-15.755v11.816h-.788c-1.969,0-3.151-2.954-3.151-5.908s1.182-5.908,3.151-5.908Zm-27.57,0h21.071a13.761,13.761,0,0,0-1.378,5.908,10.953,10.953,0,0,0,1.378,5.908H195.453Z"></path><rect class="cls-2" x="124.56" y="177.664" width="3.939" height="19.693"></rect><circle class="cls-2" cx="138.345" cy="179.633" r="1.969"></circle><circle class="cls-2" cx="138.345" cy="187.51" r="1.969"></circle><circle class="cls-2" cx="138.345" cy="195.387" r="1.969"></circle><circle class="cls-2" cx="154.099" cy="179.633" r="1.969"></circle><circle class="cls-2" cx="154.099" cy="187.51" r="1.969"></circle><circle class="cls-2" cx="154.099" cy="195.387" r="1.969"></circle><circle class="cls-2" cx="146.222" cy="183.572" r="1.969"></circle><circle class="cls-2" cx="146.222" cy="191.449" r="1.969"></circle><circle class="cls-2" cx="161.976" cy="183.572" r="1.969"></circle><circle class="cls-2" cx="161.976" cy="191.449" r="1.969"></circle><circle class="cls-2" cx="169.853" cy="179.633" r="1.969"></circle><circle class="cls-2" cx="169.853" cy="187.51" r="1.969"></circle><circle class="cls-2" cx="169.853" cy="195.387" r="1.969"></circle><circle class="cls-2" cx="185.607" cy="179.633" r="1.969"></circle><circle class="cls-2" cx="185.607" cy="187.51" r="1.969"></circle><circle class="cls-2" cx="185.607" cy="195.387" r="1.969"></circle><circle class="cls-2" cx="177.73" cy="183.572" r="1.969"></circle><circle class="cls-2" cx="177.73" cy="191.449" r="1.969"></circle><path class="cls-2" d="M226.961,197.357V177.664H191.515v19.693ZM223.023,181.6v11.815h-.788c-1.969,0-3.151-2.954-3.151-5.908s1.182-5.907,3.151-5.907Zm-27.57,0h21.071a13.753,13.753,0,0,0-1.378,5.907,10.951,10.951,0,0,0,1.378,5.908H195.453Z"></path><path class="cls-3" d="M233.307,135.6s-.466,10.181,15.939,14.5"></path><circle class="cls-4" cx="200" cy="150" r="115.263"></circle><line class="cls-4" x1="279.698" y1="66.734" x2="116.683" y2="229.646"></line></svg>