<svg xmlns="http://www.w3.org/2000/svg" id="Layer_1" data-name="Layer 1" viewBox="0 0 400 300"><defs><style>.cls-1{fill:#38f22e;}</style></defs><circle class="cls-1" cx="250.07" cy="137.087" r="53.75"></circle><path d="M338.573,60.225a18.664,18.664,0,0,0-18.632-18.653H80.059A18.664,18.664,0,0,0,61.426,60.225V206.238A18.668,18.668,0,0,0,80.059,224.9h91.124l-10.569,29.669h-8.263a1.931,1.931,0,1,0,0,3.861h95.3a1.931,1.931,0,0,0,0-3.861h-8.263l-.059-.166-10.51-29.5H286.18L297.787,245c1.794,3.105,5.329,3.655,6.766,3.748a16.632,16.632,0,0,0,14.966-8.634c.637-1.29,1.927-4.626.128-7.74l-4.317-7.48h5.343a18.106,18.106,0,0,0,17.9-18.265ZM235.3,254.567H164.7L175.284,224.9h49.432l.059.166ZM80.059,221.038a14.639,14.639,0,0,1-14.793-14.8V195.561H269.243l14.711,25.477Zm170.1-31.063a53.115,53.115,0,0,1-45.9-26.437,52.949,52.949,0,0,1,44.4-79.356q.732-.02,1.458-.019a52.906,52.906,0,0,1,.041,105.812ZM316.312,234.3a4.224,4.224,0,0,1-.23,4.11,12.207,12.207,0,0,1-4.767,4.785,12.466,12.466,0,0,1-6,1.731c-.175,0-.346,0-.515-.016-1.8-.115-3.037-.735-3.675-1.838L270.48,190.021l1.814-.774a52.055,52.055,0,0,0,11.825-6.828l1.579-1.184.142.244Zm18.422-27.668c0,8.211-6.045,14.405-14.061,14.405h-6.056a2.068,2.068,0,0,0-.251.019l-1.167.16-14.812-25.656h36.347Zm0-14.932H296.157l-7.536-13.055.976-.949a56.709,56.709,0,0,0-67.9-89.76,56.011,56.011,0,0,0-19.106,18.171l-.714,1.1-.179-.054-22.762-6.765-.054-1.247a16.051,16.051,0,0,0-32.088.679,15.824,15.824,0,0,0,1.075,5.583l.435,1.153-.134.115-20.554,17.439-1.08-.663A15.987,15.987,0,1,0,131.409,128l-.908-1.306.173-.146L150.295,109.9l1.14,1.155a15.988,15.988,0,0,0,26.316-5.343l.593-1.484.218.066,21.287,6.332-.888,1.849a56.587,56.587,0,0,0,26.916,75.89l7.1,3.334H65.266V60.225a14.649,14.649,0,0,1,14.793-14.82H319.941a14.649,14.649,0,0,1,14.793,14.82ZM175.077,99.817A12.214,12.214,0,1,1,162.867,87.6,12.227,12.227,0,0,1,175.077,99.817Zm-44.645,37.292a12.218,12.218,0,1,1-12.218-12.218A12.232,12.232,0,0,1,130.432,137.109Z"></path><path d="M282.129,114.356a1.685,1.685,0,0,0-1.888-1.449,1.79,1.79,0,0,0-.456.1l-16.766,5.706-.748-1.416a16.14,16.14,0,0,0-14.083-8.591h-.114a15.681,15.681,0,0,0-13.687,8.228l-.762,1.366-15.518-5.282a1.818,1.818,0,0,0-.633-.114l-.111,0a1.8,1.8,0,0,0-.434,3.5l15.65,5.344-.139,1.471a15.679,15.679,0,0,0,.2,4.764,15.954,15.954,0,0,0,18.91,12.264A16.042,16.042,0,0,0,264.11,123.62l-.091-1.431,16.9-5.773A1.707,1.707,0,0,0,282.129,114.356ZM258.592,131.38a12.267,12.267,0,0,1-7.8,5.346,12.329,12.329,0,0,1-14.648-9.486,12.356,12.356,0,0,1,9.487-14.647,12.667,12.667,0,0,1,2.491-.283h.138a12.377,12.377,0,0,1,10.328,19.071Z"></path></svg>