<?xml version="1.0" encoding="UTF-8" standalone="no"?>
<!DOCTYPE svg PUBLIC "-//W3C//DTD SVG 1.1//EN" "http://www.w3.org/Graphics/SVG/1.1/DTD/svg11.dtd">
<svg width="100%" height="100%" viewBox="0 0 148 59" version="1.1" xmlns="http://www.w3.org/2000/svg" xmlns:xlink="http://www.w3.org/1999/xlink" xml:space="preserve" xmlns:serif="http://www.serif.com/" style="fill-rule:evenodd;clip-rule:evenodd;stroke-linejoin:round;stroke-miterlimit:2;">
    <g transform="matrix(0.24,0,0,0.24,0,0)">
        <g transform="matrix(4.16667,0,0,4.16667,0,0)">
            <path d="M2.281,45.489L4.727,45.489L7.781,54.682L10.863,45.489L13.307,45.489L15.518,58.671L13.092,58.671L11.679,50.345L8.879,58.671L6.668,58.671L3.894,50.345L2.445,58.671L0,58.671L2.281,45.489Z" style="fill:rgb(35,31,32);fill-rule:nonzero;"/>
            <path d="M25.546,47.614C24.326,47.614 23.301,48.038 22.47,48.886C21.639,49.734 21.224,50.811 21.224,52.12C21.224,53.577 21.746,54.73 22.793,55.578C23.606,56.241 24.539,56.574 25.591,56.574C26.781,56.574 27.795,56.143 28.632,55.284C29.469,54.424 29.888,53.362 29.888,52.101C29.888,50.847 29.465,49.786 28.623,48.917C27.779,48.048 26.754,47.614 25.546,47.614ZM25.573,45.159C27.438,45.159 29.041,45.834 30.383,47.184C31.726,48.533 32.397,50.179 32.397,52.12C32.397,54.044 31.734,55.672 30.41,57.004C29.086,58.335 27.48,59 25.591,59C23.613,59 21.969,58.317 20.66,56.95C19.351,55.582 18.697,53.958 18.697,52.076C18.697,50.815 19.002,49.657 19.61,48.599C20.222,47.543 21.059,46.704 22.126,46.086C23.192,45.467 24.342,45.159 25.573,45.159Z" style="fill:rgb(35,31,32);fill-rule:nonzero;"/>
            <path d="M36.605,45.489L39.011,45.489L44.65,54.162L44.65,45.489L47.159,45.489L47.159,58.671L44.746,58.671L39.113,50.023L39.113,58.671L36.605,58.671L36.605,45.489Z" style="fill:rgb(35,31,32);fill-rule:nonzero;"/>
            <path d="M52.014,45.489L59.208,45.489L59.208,47.944L54.505,47.944L54.505,50.328L59.208,50.328L59.208,52.739L54.505,52.739L54.505,56.205L59.208,56.205L59.208,58.671L52.014,58.671L52.014,45.489Z" style="fill:rgb(35,31,32);fill-rule:nonzero;"/>
            <path d="M62.445,45.489L65.14,45.489L67.597,50.23L70.044,45.489L72.704,45.489L68.848,52.962L68.848,58.671L66.321,58.671L66.321,52.962L62.445,45.489Z" style="fill:rgb(35,31,32);fill-rule:nonzero;"/>
            <path d="M83.512,47.281L81.653,48.923C81.002,48.013 80.338,47.56 79.662,47.56C79.332,47.56 79.063,47.647 78.853,47.824C78.645,48.001 78.539,48.199 78.539,48.421C78.539,48.64 78.613,48.85 78.764,49.048C78.967,49.31 79.58,49.875 80.604,50.74C81.562,51.541 82.142,52.046 82.345,52.256C82.853,52.768 83.214,53.258 83.426,53.728C83.639,54.198 83.745,54.71 83.745,55.265C83.745,56.345 83.371,57.239 82.624,57.943C81.876,58.648 80.902,59 79.7,59C78.761,59 77.943,58.771 77.247,58.312C76.551,57.851 75.952,57.13 75.457,56.143L77.566,54.872C78.2,56.036 78.93,56.617 79.755,56.617C80.187,56.617 80.548,56.492 80.841,56.241C81.134,55.99 81.281,55.701 81.281,55.373C81.281,55.074 81.17,54.775 80.949,54.477C80.729,54.177 80.24,53.72 79.486,53.105C78.051,51.935 77.122,51.032 76.704,50.395C76.285,49.759 76.075,49.125 76.075,48.492C76.075,47.578 76.424,46.794 77.12,46.139C77.817,45.485 78.677,45.159 79.699,45.159C80.356,45.159 80.984,45.31 81.579,45.615C82.173,45.92 82.818,46.475 83.512,47.281Z" style="fill:rgb(35,31,32);fill-rule:nonzero;"/>
            <path d="M90.473,50.642L91.27,50.642C91.897,50.642 92.333,50.596 92.578,50.507C92.822,50.417 93.016,50.268 93.156,50.061C93.296,49.855 93.366,49.605 93.366,49.311C93.366,48.801 93.169,48.43 92.775,48.196C92.488,48.024 91.957,47.936 91.18,47.936L90.473,47.936L90.473,50.642ZM87.964,45.489L90.625,45.489C92.064,45.489 93.103,45.623 93.737,45.888C94.375,46.155 94.877,46.585 95.242,47.178C95.611,47.773 95.794,48.486 95.794,49.316C95.794,50.235 95.554,51.001 95.073,51.61C94.593,52.219 93.939,52.643 93.115,52.882C92.632,53.019 91.751,53.087 90.473,53.087L90.473,58.671L87.964,58.671L87.964,45.489Z" style="fill:rgb(35,31,32);fill-rule:nonzero;"/>
            <path d="M99.147,45.489L101.841,45.489L104.3,50.23L106.748,45.489L109.407,45.489L105.549,52.962L105.549,58.671L103.023,58.671L103.023,52.962L99.147,45.489Z" style="fill:rgb(35,31,32);fill-rule:nonzero;"/>
            <path d="M115.797,47.909L115.797,56.223L116.962,56.223C118.109,56.223 118.941,56.092 119.458,55.829C119.974,55.565 120.397,55.124 120.725,54.502C121.054,53.88 121.218,53.115 121.218,52.205C121.218,50.806 120.827,49.72 120.044,48.95C119.339,48.257 118.208,47.909 116.649,47.909L115.797,47.909ZM113.307,45.489L116.279,45.489C118.195,45.489 119.619,45.727 120.549,46.202C121.479,46.677 122.248,47.449 122.85,48.517C123.453,49.588 123.753,50.836 123.753,52.262C123.753,53.279 123.584,54.213 123.249,55.063C122.911,55.915 122.446,56.621 121.852,57.183C121.258,57.744 120.614,58.132 119.923,58.347C119.231,58.563 118.031,58.671 116.324,58.671L113.307,58.671L113.307,45.489Z" style="fill:rgb(35,31,32);fill-rule:nonzero;"/>
            <path d="M127.989,45.489L135.184,45.489L135.184,47.944L130.479,47.944L130.479,50.328L135.184,50.328L135.184,52.739L130.479,52.739L130.479,56.205L135.184,56.205L135.184,58.671L127.989,58.671L127.989,45.489Z" style="fill:rgb(35,31,32);fill-rule:nonzero;"/>
            <path d="M142.037,50.642L142.823,50.642C143.62,50.642 144.17,50.538 144.471,50.328C144.772,50.118 144.921,49.769 144.921,49.285C144.921,48.997 144.847,48.747 144.699,48.533C144.549,48.321 144.349,48.169 144.1,48.075C143.85,47.983 143.391,47.936 142.724,47.936L142.037,47.936L142.037,50.642ZM139.528,45.489L142.186,45.489C143.642,45.489 144.678,45.62 145.295,45.88C145.914,46.139 146.41,46.571 146.786,47.174C147.162,47.778 147.35,48.492 147.35,49.316C147.35,50.181 147.142,50.906 146.728,51.488C146.312,52.071 145.686,52.511 144.85,52.81L147.972,58.671L145.23,58.671L142.266,53.087L142.037,53.087L142.037,58.671L139.528,58.671L139.528,45.489Z" style="fill:rgb(35,31,32);fill-rule:nonzero;"/>
            <path d="M73.985,30.855C67.987,30.855 62.897,26.899 61.183,21.46L64.678,17.965C64.951,22.941 69.016,26.908 73.985,26.908C76.741,26.908 79.214,25.682 80.925,23.748L80.985,23.717L87.393,17.172C87.395,17.259 87.406,17.345 87.406,17.434C87.406,24.835 81.386,30.855 73.985,30.855ZM68.447,14.658L76.843,23.028C75.987,23.487 75.017,23.75 73.985,23.75C70.58,23.75 67.81,20.917 67.81,17.434C67.81,16.437 68.043,15.497 68.447,14.658ZM70.488,12.234C71.483,11.532 72.688,11.119 73.985,11.119C77.391,11.119 80.161,13.952 80.161,17.434C80.161,18.704 79.79,19.884 79.156,20.876L70.488,12.234ZM73.985,4.013C79.942,4.013 84.998,7.917 86.747,13.298L83.286,16.762C82.944,11.852 78.908,7.961 73.985,7.961C71.515,7.961 69.272,8.947 67.601,10.543L67.589,10.538L67.391,10.736C67.39,10.738 67.388,10.739 67.387,10.741L60.572,17.591C60.571,17.538 60.564,17.487 60.564,17.434C60.564,10.034 66.585,4.013 73.985,4.013ZM73.985,0.855C64.844,0.855 57.406,8.293 57.406,17.434C57.406,26.576 64.844,34.013 73.985,34.013C83.127,34.013 90.564,26.576 90.564,17.434C90.564,8.293 83.127,0.855 73.985,0.855Z" style="fill:rgb(35,31,32);fill-rule:nonzero;"/>
        </g>
    </g>
</svg>
