<svg id="Layer_1" data-name="Layer 1" xmlns="http://www.w3.org/2000/svg" viewBox="0 0 50 50"><defs><style>.cls-1{fill:#38f22e;}</style></defs><rect class="cls-1" x="3.725" y="36.454" width="9.694" height="10.241"/><path d="M47.058,46.973V36.134h-6.2l.163-.439a.947.947,0,0,1,.087-.214,19.169,19.169,0,0,0,2.956-8.143.9.9,0,0,1,.486-.615,1.8,1.8,0,0,0,1.1-1.673,1.824,1.824,0,0,0-1.088-1.685,1.022,1.022,0,0,1-.5-.687,19.187,19.187,0,0,0-2.773-7.794l-.563-.915.546-.055h5.8V3.115H36.24V9.4l-.569-.277a1.263,1.263,0,0,1-.123-.065,19.082,19.082,0,0,0-8.1-2.94.911.911,0,0,1-.625-.471A1.8,1.8,0,0,0,25.135,4.53h-.014a1.806,1.806,0,0,0-1.671,1.1.962.962,0,0,1-.661.484,18.83,18.83,0,0,0-6.056,1.8c-.506.251-1,.529-1.507.817q-.353.2-.721.4l-.482.267V3.117H3.212v10.84h6.2l-.169.441a.909.909,0,0,1-.092.217A19.089,19.089,0,0,0,6.2,22.753a.915.915,0,0,1-.485.612,1.837,1.837,0,0,0-.011,3.359,1.027,1.027,0,0,1,.5.687A19.194,19.194,0,0,0,8.982,35.2l.587.947L9,36.174H3.2v10.8H14.047V40.684l.568.292c.061.032.1.054.143.079a19.057,19.057,0,0,0,8.062,2.919.918.918,0,0,1,.627.468,1.8,1.8,0,0,0,1.689,1.116h.012a1.8,1.8,0,0,0,1.671-1.1.966.966,0,0,1,.658-.486,19.144,19.144,0,0,0,7.078-2.334c.261-.147.517-.3.794-.471l.9-.54v6.347Zm-.787-10.008v9.22H37.049v-9.22ZM44.545,24.3a1.034,1.034,0,0,1,.321.727,1.058,1.058,0,0,1-1.022,1.061h-.019a1.043,1.043,0,0,1-1.04-1.022,1.047,1.047,0,0,1,1.022-1.059A1.014,1.014,0,0,1,44.545,24.3ZM37.067,3.905h9.221v9.22H37.067ZM25.111,5.314a1.076,1.076,0,0,1,.74.29,1.038,1.038,0,0,1,.324.727A1.057,1.057,0,0,1,25.158,7.4h-.024a1.048,1.048,0,0,1-1.04-1.017A1.043,1.043,0,0,1,25.111,5.314Zm-21.117,7.8V3.892h9.221v9.222Zm2.44,12.972A1.04,1.04,0,0,1,5.717,24.3a.966.966,0,0,1,.737-.3,1.048,1.048,0,0,1,1.031,1.049,1.058,1.058,0,0,1-1.041,1.032Zm6.77,20.1H3.982v-9.22H13.2Zm11.938-1.409h-.009a1.048,1.048,0,0,1-1.039-1.033A1.042,1.042,0,0,1,25.126,42.7a1.184,1.184,0,0,1,.737.3,1.032,1.032,0,0,1,.312.731A1.055,1.055,0,0,1,25.142,44.776ZM36.23,39.063a1.111,1.111,0,0,1-.4.791,18.1,18.1,0,0,1-8.126,3.3.967.967,0,0,1-1.091-.451,1.736,1.736,0,0,0-1.47-.8h0a1.812,1.812,0,0,0-1.507.817.872.872,0,0,1-.774.459,1.34,1.34,0,0,1-.185-.013A18.072,18.072,0,0,1,14.38,39.81a.991.991,0,0,1-.343-.737c-.015-.794-.013-1.59-.011-2.409v-.513l-.5-.007c-.627-.011-1.222-.019-1.816.024a1.76,1.76,0,0,1-1.772-.921,19.058,19.058,0,0,1-2.91-7.611A1.009,1.009,0,0,1,7.5,26.511a1.738,1.738,0,0,0,.782-1.465,1.793,1.793,0,0,0-.8-1.488.955.955,0,0,1-.454-1.042,18.157,18.157,0,0,1,3.327-8.211,1,1,0,0,1,.733-.358c.8-.015,1.6-.014,2.411-.011h.529c0-.023,0-.047,0-.071v-.831c0-.668-.005-1.337.014-2a1.094,1.094,0,0,1,.4-.795,18.074,18.074,0,0,1,8.125-3.3.965.965,0,0,1,1.09.452,1.74,1.74,0,0,0,1.467.8h.007a1.843,1.843,0,0,0,1.531-.853.82.82,0,0,1,.888-.413,18.02,18.02,0,0,1,8.343,3.352,1,1,0,0,1,.342.74c.014.788.012,1.576.01,2.388v.534H36.8c.789,0,1.55,0,2.313-.007a.951.951,0,0,1,.861.427,18.5,18.5,0,0,1,3.262,8.095,1.01,1.01,0,0,1-.465,1.125,1.733,1.733,0,0,0-.782,1.46,1.84,1.84,0,0,0,.834,1.523.826.826,0,0,1,.435.876,18.082,18.082,0,0,1-3.37,8.383.935.935,0,0,1-.705.324c-.8.013-1.608.009-2.442.01h-.5l0,1.365C36.249,38.033,36.252,38.55,36.23,39.063Z"/><path d="M31.375,16.025H18.889a1.848,1.848,0,0,0-2.055,2.037V31.941a1.876,1.876,0,0,0,2.106,2.124h12.4a1.873,1.873,0,0,0,2.1-2.084V18.1A1.852,1.852,0,0,0,31.375,16.025ZM32.641,32.24a1.021,1.021,0,0,1-1.014,1.034c-.056,0-.111.005-.167.005H18.989c-1.009,0-1.367-.352-1.367-1.348V28.345H32.646V29.7C32.649,30.554,32.651,31.4,32.641,32.24ZM17.648,27.509V22.585H32.614v4.924Zm15-5.75H17.621V19.122c0-.395,0-.789,0-1.184a1.038,1.038,0,0,1,1.133-1.123q6.372-.008,12.748,0a1.035,1.035,0,0,1,1.139,1.073c.009.826.007,1.651.005,2.494Z"/><polygon points="11.453 39.888 10.882 39.345 7.197 43.07 6.323 42.19 5.791 42.73 7.201 44.138 11.453 39.888"/><rect x="23.008" y="24.626" width="0.844" height="0.834"/><rect x="26.294" y="24.637" width="0.857" height="0.831"/><rect x="29.571" y="24.638" width="0.856" height="0.829"/><rect x="19.738" y="18.926" width="0.838" height="0.829"/><rect x="22.998" y="18.937" width="0.85" height="0.824"/><rect x="26.267" y="18.921" width="0.831" height="0.84"/><rect x="19.737" y="30.392" width="0.841" height="0.832"/><rect x="23.008" y="30.388" width="0.833" height="0.831"/><rect x="26.278" y="30.398" width="0.828" height="0.838"/><polygon points="11.435 6.65 10.865 6.107 7.179 9.832 6.306 8.952 5.774 9.491 7.183 10.9 11.435 6.65"/><polygon points="44.508 6.65 43.937 6.107 40.252 9.832 39.379 8.952 38.847 9.491 40.256 10.9 44.508 6.65"/><polygon points="44.508 39.929 43.937 39.386 40.252 43.111 39.379 42.231 38.847 42.771 40.256 44.179 44.508 39.929"/></svg>