<svg id="Layer_1" data-name="Layer 1" xmlns="http://www.w3.org/2000/svg" viewBox="0 0 50 50"><defs><style>.cls-1{fill:#38f22e;}.cls-2{fill:#fff;}</style></defs><path class="cls-1" d="M39.784,26.9a7.5,7.5,0,0,1-1.523,1.023c-.676.013-1.079-.685-1.238-.057a13.861,13.861,0,0,1-1.542,3.723c-.36.6.546.616,1.057,1.144a4.676,4.676,0,0,1,.19,1.478l-2.537,2.539s-1.169.262-1.373.064c-.52-.5-.634-1.69-1.238-1.328A13.786,13.786,0,0,1,27.9,37.015c-.694.178-.064.889-.072,1.642,0,.248-.93,1.126-.93,1.126h-3.53a7.843,7.843,0,0,1-1.122-1.564c-.012-.679.785-1.037.158-1.2a13.908,13.908,0,0,1-3.723-1.542c-.6-.361-.338.383-.859.891a6.97,6.97,0,0,1-1.712.358l-2.569-2.557a6.742,6.742,0,0,1,.3-1.746c.5-.521,1.3-.244.937-.85A13.775,13.775,0,0,1,13.257,27.9c-.172-.67-.509.224-1.211.212-.267,0-1.557-1.212-1.557-1.212v-3.53s.781-1.087,1.058-1.093c.677-.012,1.543.755,1.7.128a13.793,13.793,0,0,1,1.543-3.723c.36-.6-1.132-.889-1.644-1.412-.189-.193.379-1.163.379-1.163l2.583-2.555a5.878,5.878,0,0,1,1.656.292c.518.5.321,1.3.931.939a13.785,13.785,0,0,1,3.677-1.528c.669-.169-.2-1.077-.192-1.782,0-.276,1.191-.986,1.191-.986H26.9s.977.5.983.778c.012.675-.644,1.824-.015,1.983a13.778,13.778,0,0,1,3.723,1.543c.59.357.32-.589.838-1.1a5.815,5.815,0,0,1,1.723-.16l2.565,2.572s.275,1.126.078,1.328c-.5.518-1.673.651-1.308,1.259a13.759,13.759,0,0,1,1.528,3.677c.17.668.919-.062,1.622-.05.267,0,1.146,1.049,1.146,1.049Z"/><path d="M21.251,47.008l.208.033c.535.082,1.062.149,1.533.21h0l.807.106,2.787-.006,1.306-.171a21.721,21.721,0,0,0,5.838-1.558.357.357,0,0,0,.257-.418.348.348,0,0,0-.159-.239.523.523,0,0,0-.418.02,22,22,0,0,1-6.705,1.581,20.459,20.459,0,0,1-11.068-2.173C8.457,40.653,4.451,34.717,3.73,26.748A20.735,20.735,0,0,1,7.17,13.326c.068-.1.14-.2.217-.306l1.731-2.61.146,2.772c.086.53.443.484.453.478a.329.329,0,0,0,.319-.359c.029-1.247.028-2.432,0-3.624-.009-.293-.173-.335-.315-.337-1.234-.024-2.486-.023-3.722,0a.308.308,0,0,0-.291.3A.32.32,0,0,0,6,10.025a3.053,3.053,0,0,0,.375.034l1.976.156L7.4,11.721c-.067.11-.116.192-.172.268A22.209,22.209,0,0,0,21.251,47.008Z"/><path d="M47.357,26.393l-.024-2.707a1.585,1.585,0,0,1-.057-.323,21.743,21.743,0,0,0-1.611-6.75A22.2,22.2,0,0,0,20.64,3.389a26.892,26.892,0,0,0-3.264.986l-.932.322c-.165.055-.181.269-.177.318.019.172.114.286.2.3a1.381,1.381,0,0,0,.6-.106,21.56,21.56,0,0,1,12.951-1A21.529,21.529,0,0,1,44.4,34.676c-.293.588-.614,1.135-.955,1.714l-.039.065c-.208.352-.373.634-.541.926l-1.737,2.607-.083-2.813c-.058-.571-.307-.571-.414-.571a.448.448,0,0,0-.058.005c-.148.023-.344.053-.347.6l0,.543c0,.9-.006,1.8.005,2.7,0,.39.094.481.48.484,1.31.01,2.4.011,3.429,0,.424,0,.429-.26.43-.344.005-.285-.235-.36-.438-.373l-2.322-.1L42.891,38.5c.044-.07.084-.127.124-.183a21.853,21.853,0,0,0,4.014-9.439c.089-.535.155-1.079.219-1.605Z"/><path d="M40,27.781c.008-1.756.008-3.538,0-5.294,0-.31-.121-.426-.441-.431-.247,0-.5-.005-.743,0l-1.342,0-1.5-3.6.754-.617c.116-.094.227-.184.334-.281.147-.135.3-.288.48-.484a.35.35,0,0,0,.041-.506c-1.3-1.328-2.609-2.639-3.9-3.895a.337.337,0,0,0-.483.04c-.083.074-.162.152-.24.231l-1.157,1.2c-.294.153-.4-.007-1.59-.526a2.911,2.911,0,0,0-.356-.119c-.474-.145-1.681-.669-1.681-.669l.012-1.816a2.946,2.946,0,0,0,.017-.348.354.354,0,0,0-.357-.395c-1.723-.014-3.5-.015-5.425,0-.242,0-.369.141-.375.413,0,.144,0,.291,0,.437,0,.3.039,1.368.02,1.638,0,0-.36.18-.857.4s-.974.4-1.445.589l-1.262.5-.714-.765c-.2-.218-.411-.444-.629-.661-.311-.311-.427-.314-.735-.007Q14.6,14.629,12.786,16.46c-.264.265-.265.409-.006.667.216.215.447.42.672.616l.875.781-.5,1.064c-.08.169-.142.3-.2.427a2.976,2.976,0,0,0-.1.294l-.013.044c-.143.487,0,0-.327,1-.2.61-.264.75-.264.75l-1.913-.03a2.847,2.847,0,0,0-.359-.014.355.355,0,0,0-.391.367c-.014,1.8-.014,3.626,0,5.425,0,.235.131.358.384.366q.263.006.516,0c.233,0,1.375-.029,1.65.011.094.014.113.309.325.8s.4.971.6,1.474l.5,1.251-.8.756c-.229.213-.463.434-.688.663-.207.21-.214.388-.027.58,1.273,1.292,2.541,2.56,3.773,3.772.229.229.372.221.617-.014.225-.22.442-.454.644-.674l.752-.8L19.7,36.5a21.394,21.394,0,0,1,2.192.913c.172.1.121.475.154.907.018.271.017.538.014.835,0,.148,0,.295,0,.44a.367.367,0,0,0,.376.411c1.994.013,3.768.012,5.425,0,.219,0,.349-.147.357-.4l0-.262.009-1.8a10.326,10.326,0,0,1,1.547-.7c.085-.033,1.539-.715,1.627-.753.29-.123,1.2.781,1.5,1.138a3.206,3.206,0,0,0,.233.264c.26.253.413.256.654.018,1.151-1.14,2.365-2.354,3.71-3.711.245-.248.246-.4,0-.643-.207-.21-.418-.4-.673-.633L36,31.759l.069-.162,1.407-3.381h1.24c.283,0,.564,0,.848,0C39.878,28.211,40,28.089,40,27.781Zm-.748-.283-1.462,0c-.219,0-.429,0-.642,0-.324.006-.385.105-.439.315a13.377,13.377,0,0,1-1.491,3.6c-.125.208-.172.285.094.559.126.129.258.258.389.386l1.079,1.056-3.4,3.4-.917-.981c-.169-.184-.332-.361-.5-.528-.233-.224-.3-.235-.559-.08a13.366,13.366,0,0,1-3.556,1.478c-.252.063-.346.088-.35.492v.683l0,1.375H22.774l0-1.461c0-.26,0-.452,0-.643-.006-.324-.105-.385-.314-.438a13.461,13.461,0,0,1-3.6-1.49c-.241-.142-.314-.152-.559.089-.156.153-.307.32-.462.491l-.919,1-3.446-3.43.979-.921c.175-.161.346-.319.507-.486.224-.231.234-.3.079-.562a13.287,13.287,0,0,1-1.476-3.558c-.071-.279-.152-.34-.454-.345h-.449l-1.647,0V22.774l1.36,0c.25,0,.5.007.743,0,.325-.007.385-.105.439-.314a13.334,13.334,0,0,1,1.491-3.6c.144-.239.151-.308-.091-.556-.158-.162-.33-.315-.481-.45l-1.028-.935,3.468-3.43.916.98c.158.17.314.338.477.5.232.223.3.234.564.077a13.3,13.3,0,0,1,3.556-1.477c.281-.071.339-.148.343-.455,0-.244,0-.482,0-.732l0-1.363H27.5l0,1.468c0,.26,0,.451,0,.642,0,.282.071.371.318.434a13.341,13.341,0,0,1,3.6,1.491c.2.123.281.173.554-.093.161-.158.317-.332.452-.486l.919-1.012.186.187,3.259,3.267-.965.906c-.187.172-.356.328-.516.493-.221.228-.231.3-.076.559a13.333,13.333,0,0,1,1.478,3.555c.071.284.148.342.455.347l.729,0,1.365,0Z"/><path d="M30.6,19.664a7.69,7.69,0,0,0-5.47-2.268h-.01a7.754,7.754,0,1,0,5.48,2.268Zm-.7,10.27a6.762,6.762,0,1,1,2-4.764A6.756,6.756,0,0,1,29.9,29.934Z"/><path class="cls-2" d="M30.05,30.082a6.964,6.964,0,0,1-4.934,2.034h-.043A6.989,6.989,0,0,1,18.156,25.1a7,7,0,0,1,7-6.944h.04a6.987,6.987,0,0,1,6.919,7.016A6.9,6.9,0,0,1,30.05,30.082Z"/></svg>