<svg id="Layer_1" data-name="Layer 1" xmlns="http://www.w3.org/2000/svg" viewBox="0 0 50 50"><defs><style>.cls-1{fill:#38f22e;}</style></defs><path class="cls-1" d="M28.4,12.723a1.424,1.424,0,0,0-.009-.171,1.521,1.521,0,0,0-.156-.007H12.913l.587-1.389a9.431,9.431,0,0,1,3.571-4.487A9.972,9.972,0,0,1,22.293,5.09c1.019-.032,2.051-.039,3.07-.039l2.749,0a2.449,2.449,0,0,0,.271-.015,2.165,2.165,0,0,0,.015-.281V2.868a.437.437,0,0,1,.7-.351l7.719,5.7a.718.718,0,0,1,0,1.154l-7.723,5.7a.436.436,0,0,1-.7-.352Z"/><path d="M28.519,15.3a.747.747,0,0,0,.871-.124l2.525-1.861q2.456-1.81,4.908-3.631a1.17,1.17,0,0,0,.547-.9,1.156,1.156,0,0,0-.54-.885c-1.878-1.4-3.8-2.8-5.6-4.129L29.093,2.206h-.5c-.462.282-.475.678-.459,1.346a6.252,6.252,0,0,1-.007.647l-.049.573-3.171,0q-.72,0-1.436,0a12.485,12.485,0,0,0-5.479,1.073,9.956,9.956,0,0,0-5.127,6.229c-.154.453-.086.58-.07.6s.124.125.578.125H28.136v1.734C28.139,15.039,28.342,15.21,28.519,15.3ZM13.478,12.169l.366-.868a9.072,9.072,0,0,1,3.431-4.318,9.6,9.6,0,0,1,5.03-1.518c1.317-.041,2.626-.04,4.075-.037q.869.006,1.733,0c.635,0,.659-.028.66-.671V2.745L36.962,8.79l-8.193,6.052,0-1.243V12.72c0-.5-.053-.55-.54-.55Z"/><path d="M15.116,20.568Q13.654,18.6,12.2,16.619L9.784,13.352a1.37,1.37,0,0,0-.991-.651,1.365,1.365,0,0,0-.989.649q-2.048,2.768-4.089,5.541c-.327.446-.648.9-.969,1.347l-.54.756v.43a.857.857,0,0,0,.87.489h.049c.156,0,.313,0,.469,0l.183,0,1-.007,0,.443c0,.249,0,.249,0,.545l0,.69c-.005.467-.01.95.011,1.423.016.406.025.813.034,1.221a22.415,22.415,0,0,0,.217,3.158c.657,3.937,3.054,6.52,7.325,7.9a.3.3,0,0,0,.442-.321c.01-2.139.01-4.451,0-7.067a.292.292,0,0,0-.308-.315c-.187,0-.3.125-.316.343-.005.081,0,.157,0,.232v6.408l-.864-.359a9.761,9.761,0,0,1-3.159-2.02A9.026,9.026,0,0,1,5.468,27.77c-.054-1.341-.049-2.7-.043-4.008v-.074c0-.623.006-1.2,0-1.778,0-.6-.052-.647-.653-.65H2.757l6.036-8.171.1.136,5.933,8.037-1.825,0c-.117,0-.227,0-.343,0-.409.012-.487.09-.488.493q0,2.423,0,4.848c0,.511.227.511.312.512a.251.251,0,0,0,.193-.067.634.634,0,0,0,.126-.434v-4.7h1.662c.539,0,.727-.156.843-.39C15.457,21.222,15.4,20.954,15.116,20.568Z"/><path d="M21.95,35.463a.706.706,0,0,0-.382-.678.784.784,0,0,0-.345-.088.765.765,0,0,0-.457.168l-1.8,1.325c-1.884,1.387-3.834,2.823-5.74,4.248a1.1,1.1,0,0,0-.507.855,1.119,1.119,0,0,0,.516.868C15.16,43.6,17.1,45.034,18.93,46.38l1.8,1.331a.726.726,0,0,0,.809.115.742.742,0,0,0,.41-.74c0-.292,0-.585,0-.9v-.863h.965c.33,0,.663,0,1,0l.939,0c1.044,0,2.117-.006,3.162-.062a9.829,9.829,0,0,0,6.382-2.57,11.126,11.126,0,0,0,2.83-4.675c.147-.432.09-.559.068-.589s-.14-.129-.589-.129H21.951l0-.86C21.958,36.092,21.959,35.779,21.95,35.463Zm14.658,2.458-.365.868a8.641,8.641,0,0,1-6.455,5.554,18.061,18.061,0,0,1-3.121.307c-1.074.033-2.155.026-3.2.019l-.3,0c-.407,0-.809-.009-1.218,0h0c-.588,0-.623.035-.626.617v2.066L13.129,41.3l.136-.1,8.052-5.945,0,2.176c0,.433.065.492.507.492Z"/><path d="M34.912,29.355l2.144,2.9q1.672,2.267,3.352,4.527a1.134,1.134,0,0,0,.885.521h0a1.153,1.153,0,0,0,.9-.528q1.872-2.507,3.726-5.029l1.77-2.4a.738.738,0,0,0,.139-.845c-.1-.2-.259-.4-.753-.4-.152,0-.292,0-.434,0l-1.32,0V26.019q0-1.3,0-2.6A12.618,12.618,0,0,0,44.311,18.1c-1.171-2.574-3.331-4.332-6.6-5.374a.3.3,0,0,0-.27.016.541.541,0,0,0-.148.432q-.006,3.419,0,6.841c0,.311.1.473.307.478.142,0,.147-.019.194-.064A.63.63,0,0,0,37.92,20v-6.56l.869.366a9.407,9.407,0,0,1,3.664,2.564,9.694,9.694,0,0,1,2.194,6.408c.019,1.162.017,2.342.015,3.484v1.914c0,.5.074.573.587.576h.842l1.248-.009L41.3,36.922l-.1-.136-5.96-8.075,1.425.04c.273,0,.523,0,.775,0,.4-.008.482-.093.483-.487q.006-2.426,0-4.849c0-.454-.21-.456-.312-.457a.284.284,0,0,0-.207.068.557.557,0,0,0-.11.38l0,2.664v2.04l-.825,0c-.318,0-.618,0-.917,0-.5,0-.666.189-.762.374A.737.737,0,0,0,34.912,29.355Z"/></svg>